<mxfile host="app.diagrams.net" modified="2022-05-28T13:15:36.300Z" agent="5.0 (Windows NT 10.0; Win64; x64) AppleWebKit/537.36 (KHTML, like Gecko) Chrome/101.0.4951.67 Safari/537.36" etag="6Li3YtDf-6TdEeSs3GCH" version="18.1.3" type="github">
  <diagram id="PCii4-yHpSWue9ZSMyPw" name="Page-1">
    <mxGraphModel dx="2234" dy="729" grid="1" gridSize="10" guides="1" tooltips="1" connect="1" arrows="1" fold="1" page="1" pageScale="1" pageWidth="850" pageHeight="1100" math="0" shadow="0">
      <root>
        <mxCell id="0" />
        <mxCell id="1" parent="0" />
        <mxCell id="yMCKSJx15J1RFyX7Sh6V-66" style="rounded=0;orthogonalLoop=1;jettySize=auto;html=1;entryX=0.5;entryY=0;entryDx=0;entryDy=0;" parent="1" source="yMCKSJx15J1RFyX7Sh6V-11" target="yMCKSJx15J1RFyX7Sh6V-13" edge="1">
          <mxGeometry relative="1" as="geometry" />
        </mxCell>
        <mxCell id="yMCKSJx15J1RFyX7Sh6V-11" value="" style="shape=cylinder3;whiteSpace=wrap;html=1;boundedLbl=1;backgroundOutline=1;size=15;" parent="1" vertex="1">
          <mxGeometry x="320" y="7" width="160" height="60" as="geometry" />
        </mxCell>
        <mxCell id="yMCKSJx15J1RFyX7Sh6V-12" value="&lt;font style=&quot;font-size: 14px;&quot;&gt;Stroke Dataset&lt;/font&gt;" style="text;html=1;strokeColor=none;fillColor=none;align=center;verticalAlign=middle;whiteSpace=wrap;rounded=0;" parent="1" vertex="1">
          <mxGeometry x="350" y="37" width="99" height="30" as="geometry" />
        </mxCell>
        <mxCell id="yMCKSJx15J1RFyX7Sh6V-13" value="" style="rounded=0;whiteSpace=wrap;html=1;" parent="1" vertex="1">
          <mxGeometry x="320" y="100" width="160" height="70" as="geometry" />
        </mxCell>
        <mxCell id="yMCKSJx15J1RFyX7Sh6V-68" style="edgeStyle=none;rounded=0;orthogonalLoop=1;jettySize=auto;html=1;entryX=0.5;entryY=0;entryDx=0;entryDy=0;" parent="1" target="yMCKSJx15J1RFyX7Sh6V-15" edge="1">
          <mxGeometry relative="1" as="geometry">
            <mxPoint x="400" y="170" as="sourcePoint" />
          </mxGeometry>
        </mxCell>
        <mxCell id="yMCKSJx15J1RFyX7Sh6V-14" value="&lt;font style=&quot;font-size: 14px;&quot;&gt;Dropping Unwanted Columns and Duplicate Rows&lt;/font&gt;" style="text;html=1;strokeColor=none;fillColor=none;align=center;verticalAlign=middle;whiteSpace=wrap;rounded=0;" parent="1" vertex="1">
          <mxGeometry x="324" y="125" width="150" height="25" as="geometry" />
        </mxCell>
        <mxCell id="yMCKSJx15J1RFyX7Sh6V-15" value="" style="rounded=0;whiteSpace=wrap;html=1;" parent="1" vertex="1">
          <mxGeometry x="320" y="190" width="160" height="60" as="geometry" />
        </mxCell>
        <mxCell id="yMCKSJx15J1RFyX7Sh6V-69" value="" style="edgeStyle=none;rounded=0;orthogonalLoop=1;jettySize=auto;html=1;entryX=0.5;entryY=0;entryDx=0;entryDy=0;" parent="1" target="yMCKSJx15J1RFyX7Sh6V-18" edge="1">
          <mxGeometry relative="1" as="geometry">
            <mxPoint x="400" y="250" as="sourcePoint" />
          </mxGeometry>
        </mxCell>
        <mxCell id="yMCKSJx15J1RFyX7Sh6V-16" value="&lt;font style=&quot;font-size: 14px;&quot;&gt;Missing Value Treatment&lt;/font&gt;" style="text;html=1;strokeColor=none;fillColor=none;align=center;verticalAlign=middle;whiteSpace=wrap;rounded=0;" parent="1" vertex="1">
          <mxGeometry x="350" y="205" width="100" height="30" as="geometry" />
        </mxCell>
        <mxCell id="yMCKSJx15J1RFyX7Sh6V-70" style="edgeStyle=none;rounded=0;orthogonalLoop=1;jettySize=auto;html=1;exitX=0.5;exitY=1;exitDx=0;exitDy=0;entryX=0.5;entryY=0;entryDx=0;entryDy=0;entryPerimeter=0;" parent="1" source="yMCKSJx15J1RFyX7Sh6V-18" edge="1">
          <mxGeometry relative="1" as="geometry">
            <mxPoint x="401" y="340" as="sourcePoint" />
            <mxPoint x="400" y="370" as="targetPoint" />
          </mxGeometry>
        </mxCell>
        <mxCell id="yMCKSJx15J1RFyX7Sh6V-18" value="" style="rounded=0;whiteSpace=wrap;html=1;" parent="1" vertex="1">
          <mxGeometry x="320" y="280" width="160" height="60" as="geometry" />
        </mxCell>
        <mxCell id="yMCKSJx15J1RFyX7Sh6V-19" value="&lt;font style=&quot;font-size: 14px;&quot;&gt;Outlier Treatment&lt;/font&gt;" style="text;html=1;strokeColor=none;fillColor=none;align=center;verticalAlign=middle;whiteSpace=wrap;rounded=0;strokeWidth=2;" parent="1" vertex="1">
          <mxGeometry x="350" y="295" width="100" height="30" as="geometry" />
        </mxCell>
        <mxCell id="yMCKSJx15J1RFyX7Sh6V-71" style="edgeStyle=orthogonalEdgeStyle;rounded=0;orthogonalLoop=1;jettySize=auto;html=1;entryX=0.5;entryY=0;entryDx=0;entryDy=0;" parent="1" source="yMCKSJx15J1RFyX7Sh6V-21" target="yMCKSJx15J1RFyX7Sh6V-24" edge="1">
          <mxGeometry relative="1" as="geometry" />
        </mxCell>
        <mxCell id="yMCKSJx15J1RFyX7Sh6V-21" value="" style="shape=cylinder3;whiteSpace=wrap;html=1;boundedLbl=1;backgroundOutline=1;size=15;" parent="1" vertex="1">
          <mxGeometry x="300" y="370" width="200" height="60" as="geometry" />
        </mxCell>
        <mxCell id="yMCKSJx15J1RFyX7Sh6V-72" style="edgeStyle=orthogonalEdgeStyle;rounded=0;orthogonalLoop=1;jettySize=auto;html=1;entryX=0.5;entryY=0;entryDx=0;entryDy=0;" parent="1" target="yMCKSJx15J1RFyX7Sh6V-26" edge="1">
          <mxGeometry relative="1" as="geometry">
            <mxPoint x="500" y="400" as="sourcePoint" />
          </mxGeometry>
        </mxCell>
        <mxCell id="yMCKSJx15J1RFyX7Sh6V-105" style="edgeStyle=orthogonalEdgeStyle;rounded=0;orthogonalLoop=1;jettySize=auto;html=1;exitX=0.75;exitY=1;exitDx=0;exitDy=0;entryX=0.5;entryY=0;entryDx=0;entryDy=0;fontSize=14;" parent="1" source="yMCKSJx15J1RFyX7Sh6V-22" target="yMCKSJx15J1RFyX7Sh6V-46" edge="1">
          <mxGeometry relative="1" as="geometry" />
        </mxCell>
        <mxCell id="yMCKSJx15J1RFyX7Sh6V-111" style="edgeStyle=orthogonalEdgeStyle;rounded=0;orthogonalLoop=1;jettySize=auto;html=1;exitX=0.25;exitY=1;exitDx=0;exitDy=0;fontSize=14;" parent="1" source="yMCKSJx15J1RFyX7Sh6V-22" target="yMCKSJx15J1RFyX7Sh6V-110" edge="1">
          <mxGeometry relative="1" as="geometry" />
        </mxCell>
        <mxCell id="yMCKSJx15J1RFyX7Sh6V-22" value="&lt;font style=&quot;font-size: 14px;&quot;&gt;Cleaned Imbalance Dataset&lt;/font&gt;" style="text;html=1;strokeColor=none;fillColor=none;align=center;verticalAlign=middle;whiteSpace=wrap;rounded=0;" parent="1" vertex="1">
          <mxGeometry x="306" y="399" width="184" height="30" as="geometry" />
        </mxCell>
        <mxCell id="yMCKSJx15J1RFyX7Sh6V-24" value="" style="rounded=0;whiteSpace=wrap;html=1;" parent="1" vertex="1">
          <mxGeometry x="-81" y="457" width="160" height="60" as="geometry" />
        </mxCell>
        <mxCell id="yMCKSJx15J1RFyX7Sh6V-73" value="" style="edgeStyle=none;rounded=0;orthogonalLoop=1;jettySize=auto;html=1;entryX=0.5;entryY=0;entryDx=0;entryDy=0;exitX=0.5;exitY=1;exitDx=0;exitDy=0;" parent="1" source="yMCKSJx15J1RFyX7Sh6V-24" target="yMCKSJx15J1RFyX7Sh6V-28" edge="1">
          <mxGeometry relative="1" as="geometry">
            <mxPoint x="-30" y="430" as="sourcePoint" />
          </mxGeometry>
        </mxCell>
        <mxCell id="yMCKSJx15J1RFyX7Sh6V-25" value="&lt;font style=&quot;font-size: 14px;&quot;&gt;Under-sampling to balance data&lt;/font&gt;" style="text;html=1;strokeColor=none;fillColor=none;align=center;verticalAlign=middle;whiteSpace=wrap;rounded=0;" parent="1" vertex="1">
          <mxGeometry x="-56" y="472" width="119" height="30" as="geometry" />
        </mxCell>
        <mxCell id="yMCKSJx15J1RFyX7Sh6V-75" value="" style="edgeStyle=none;rounded=0;orthogonalLoop=1;jettySize=auto;html=1;fontSize=14;" parent="1" source="yMCKSJx15J1RFyX7Sh6V-26" target="yMCKSJx15J1RFyX7Sh6V-31" edge="1">
          <mxGeometry relative="1" as="geometry" />
        </mxCell>
        <mxCell id="yMCKSJx15J1RFyX7Sh6V-26" value="" style="rounded=0;whiteSpace=wrap;html=1;" parent="1" vertex="1">
          <mxGeometry x="720" y="457" width="160" height="60" as="geometry" />
        </mxCell>
        <mxCell id="yMCKSJx15J1RFyX7Sh6V-74" value="" style="edgeStyle=none;rounded=0;orthogonalLoop=1;jettySize=auto;html=1;entryX=0.5;entryY=0;entryDx=0;entryDy=0;" parent="1" target="yMCKSJx15J1RFyX7Sh6V-30" edge="1">
          <mxGeometry relative="1" as="geometry">
            <mxPoint x="800" y="520" as="sourcePoint" />
          </mxGeometry>
        </mxCell>
        <mxCell id="yMCKSJx15J1RFyX7Sh6V-27" value="&lt;font style=&quot;font-size: 14px;&quot;&gt;Over-sampling to balance data&lt;/font&gt;" style="text;html=1;strokeColor=none;fillColor=none;align=center;verticalAlign=middle;whiteSpace=wrap;rounded=0;" parent="1" vertex="1">
          <mxGeometry x="750" y="472" width="100" height="30" as="geometry" />
        </mxCell>
        <mxCell id="yMCKSJx15J1RFyX7Sh6V-112" style="edgeStyle=orthogonalEdgeStyle;rounded=0;orthogonalLoop=1;jettySize=auto;html=1;exitX=1;exitY=0.5;exitDx=0;exitDy=0;entryX=0;entryY=0.5;entryDx=0;entryDy=0;entryPerimeter=0;fontSize=14;" parent="1" source="yMCKSJx15J1RFyX7Sh6V-28" target="yMCKSJx15J1RFyX7Sh6V-110" edge="1">
          <mxGeometry relative="1" as="geometry" />
        </mxCell>
        <mxCell id="yMCKSJx15J1RFyX7Sh6V-28" value="" style="rounded=0;whiteSpace=wrap;html=1;" parent="1" vertex="1">
          <mxGeometry x="-81" y="550" width="160" height="60" as="geometry" />
        </mxCell>
        <mxCell id="yMCKSJx15J1RFyX7Sh6V-76" value="" style="edgeStyle=none;rounded=0;orthogonalLoop=1;jettySize=auto;html=1;fontSize=14;entryX=0.5;entryY=0;entryDx=0;entryDy=0;" parent="1" target="yMCKSJx15J1RFyX7Sh6V-32" edge="1">
          <mxGeometry relative="1" as="geometry">
            <mxPoint x="-1" y="610" as="sourcePoint" />
          </mxGeometry>
        </mxCell>
        <mxCell id="yMCKSJx15J1RFyX7Sh6V-29" value="&lt;font style=&quot;font-size: 14px;&quot;&gt;Train/Test Split&lt;/font&gt;" style="text;html=1;strokeColor=none;fillColor=none;align=center;verticalAlign=middle;whiteSpace=wrap;rounded=0;" parent="1" vertex="1">
          <mxGeometry x="-51" y="565" width="100" height="30" as="geometry" />
        </mxCell>
        <mxCell id="yMCKSJx15J1RFyX7Sh6V-85" style="edgeStyle=orthogonalEdgeStyle;rounded=0;orthogonalLoop=1;jettySize=auto;html=1;entryX=0.75;entryY=0;entryDx=0;entryDy=0;fontSize=14;" parent="1" source="yMCKSJx15J1RFyX7Sh6V-30" target="yMCKSJx15J1RFyX7Sh6V-54" edge="1">
          <mxGeometry relative="1" as="geometry">
            <Array as="points">
              <mxPoint x="899" y="580" />
            </Array>
          </mxGeometry>
        </mxCell>
        <mxCell id="yMCKSJx15J1RFyX7Sh6V-30" value="" style="rounded=0;whiteSpace=wrap;html=1;" parent="1" vertex="1">
          <mxGeometry x="720" y="550" width="160" height="60" as="geometry" />
        </mxCell>
        <mxCell id="yMCKSJx15J1RFyX7Sh6V-81" value="" style="edgeStyle=orthogonalEdgeStyle;rounded=0;orthogonalLoop=1;jettySize=auto;html=1;fontSize=14;entryX=0.5;entryY=0;entryDx=0;entryDy=0;" parent="1" target="yMCKSJx15J1RFyX7Sh6V-34" edge="1">
          <mxGeometry relative="1" as="geometry">
            <mxPoint x="800" y="610" as="sourcePoint" />
          </mxGeometry>
        </mxCell>
        <mxCell id="yMCKSJx15J1RFyX7Sh6V-31" value="&lt;font style=&quot;font-size: 14px;&quot;&gt;Train/Test Split&lt;/font&gt;" style="text;html=1;strokeColor=none;fillColor=none;align=center;verticalAlign=middle;whiteSpace=wrap;rounded=0;" parent="1" vertex="1">
          <mxGeometry x="750" y="565" width="100" height="30" as="geometry" />
        </mxCell>
        <mxCell id="yMCKSJx15J1RFyX7Sh6V-80" style="edgeStyle=orthogonalEdgeStyle;rounded=0;orthogonalLoop=1;jettySize=auto;html=1;exitX=0.75;exitY=1;exitDx=0;exitDy=0;fontSize=14;" parent="1" source="yMCKSJx15J1RFyX7Sh6V-32" edge="1">
          <mxGeometry relative="1" as="geometry">
            <mxPoint x="70" y="760" as="targetPoint" />
          </mxGeometry>
        </mxCell>
        <mxCell id="yMCKSJx15J1RFyX7Sh6V-32" value="" style="rounded=0;whiteSpace=wrap;html=1;" parent="1" vertex="1">
          <mxGeometry x="-81" y="649" width="160" height="60" as="geometry" />
        </mxCell>
        <mxCell id="yMCKSJx15J1RFyX7Sh6V-33" value="&lt;font style=&quot;font-size: 14px;&quot;&gt;Train with RF, SVM, XGBoost&lt;/font&gt;" style="text;html=1;strokeColor=none;fillColor=none;align=center;verticalAlign=middle;whiteSpace=wrap;rounded=0;" parent="1" vertex="1">
          <mxGeometry x="-51" y="664" width="100" height="30" as="geometry" />
        </mxCell>
        <mxCell id="yMCKSJx15J1RFyX7Sh6V-34" value="" style="rounded=0;whiteSpace=wrap;html=1;" parent="1" vertex="1">
          <mxGeometry x="720" y="649" width="160" height="60" as="geometry" />
        </mxCell>
        <mxCell id="yMCKSJx15J1RFyX7Sh6V-82" value="" style="edgeStyle=orthogonalEdgeStyle;rounded=0;orthogonalLoop=1;jettySize=auto;html=1;fontSize=14;entryX=0.25;entryY=0;entryDx=0;entryDy=0;" parent="1" target="yMCKSJx15J1RFyX7Sh6V-54" edge="1">
          <mxGeometry relative="1" as="geometry">
            <mxPoint x="800" y="709" as="sourcePoint" />
            <mxPoint x="800" y="739" as="targetPoint" />
          </mxGeometry>
        </mxCell>
        <mxCell id="yMCKSJx15J1RFyX7Sh6V-35" value="&lt;font style=&quot;font-size: 14px;&quot;&gt;Train with RF, SVM, XGBoost&lt;/font&gt;" style="text;html=1;strokeColor=none;fillColor=none;align=center;verticalAlign=middle;whiteSpace=wrap;rounded=0;" parent="1" vertex="1">
          <mxGeometry x="750" y="664" width="100" height="30" as="geometry" />
        </mxCell>
        <mxCell id="yMCKSJx15J1RFyX7Sh6V-79" style="edgeStyle=orthogonalEdgeStyle;rounded=0;orthogonalLoop=1;jettySize=auto;html=1;exitX=0.25;exitY=1;exitDx=0;exitDy=0;entryX=0.5;entryY=0;entryDx=0;entryDy=0;fontSize=14;" parent="1" source="yMCKSJx15J1RFyX7Sh6V-32" target="yMCKSJx15J1RFyX7Sh6V-42" edge="1">
          <mxGeometry relative="1" as="geometry">
            <mxPoint x="-30.5" y="799" as="sourcePoint" />
          </mxGeometry>
        </mxCell>
        <mxCell id="yMCKSJx15J1RFyX7Sh6V-42" value="" style="rounded=0;whiteSpace=wrap;html=1;" parent="1" vertex="1">
          <mxGeometry x="-209" y="762" width="240" height="60" as="geometry" />
        </mxCell>
        <mxCell id="yMCKSJx15J1RFyX7Sh6V-89" style="edgeStyle=orthogonalEdgeStyle;rounded=0;orthogonalLoop=1;jettySize=auto;html=1;entryX=0.11;entryY=-0.02;entryDx=0;entryDy=0;entryPerimeter=0;fontSize=14;" parent="1" target="yMCKSJx15J1RFyX7Sh6V-56" edge="1">
          <mxGeometry relative="1" as="geometry">
            <mxPoint x="-80" y="822" as="sourcePoint" />
          </mxGeometry>
        </mxCell>
        <mxCell id="yMCKSJx15J1RFyX7Sh6V-43" value="&lt;font style=&quot;font-size: 14px;&quot;&gt;Validation on Balanced Test Set&lt;/font&gt;" style="text;html=1;strokeColor=none;fillColor=none;align=center;verticalAlign=middle;whiteSpace=wrap;rounded=0;" parent="1" vertex="1">
          <mxGeometry x="-185" y="777" width="210" height="30" as="geometry" />
        </mxCell>
        <mxCell id="yMCKSJx15J1RFyX7Sh6V-44" value="" style="rounded=0;whiteSpace=wrap;html=1;" parent="1" vertex="1">
          <mxGeometry x="49" y="762" width="151" height="60" as="geometry" />
        </mxCell>
        <mxCell id="yMCKSJx15J1RFyX7Sh6V-88" style="edgeStyle=orthogonalEdgeStyle;rounded=0;orthogonalLoop=1;jettySize=auto;html=1;entryX=0.25;entryY=0;entryDx=0;entryDy=0;fontSize=14;" parent="1" target="yMCKSJx15J1RFyX7Sh6V-56" edge="1">
          <mxGeometry relative="1" as="geometry">
            <mxPoint x="132" y="822" as="sourcePoint" />
            <Array as="points">
              <mxPoint x="83" y="822" />
            </Array>
          </mxGeometry>
        </mxCell>
        <mxCell id="yMCKSJx15J1RFyX7Sh6V-45" value="&lt;font style=&quot;font-size: 14px;&quot;&gt;Validation on Balanced Test Set&lt;/font&gt;" style="text;html=1;strokeColor=none;fillColor=none;align=center;verticalAlign=middle;whiteSpace=wrap;rounded=0;" parent="1" vertex="1">
          <mxGeometry x="73" y="777" width="117" height="30" as="geometry" />
        </mxCell>
        <mxCell id="yMCKSJx15J1RFyX7Sh6V-106" style="edgeStyle=orthogonalEdgeStyle;rounded=0;orthogonalLoop=1;jettySize=auto;html=1;exitX=0.5;exitY=1;exitDx=0;exitDy=0;entryX=0.5;entryY=0;entryDx=0;entryDy=0;fontSize=14;" parent="1" source="yMCKSJx15J1RFyX7Sh6V-46" target="yMCKSJx15J1RFyX7Sh6V-48" edge="1">
          <mxGeometry relative="1" as="geometry" />
        </mxCell>
        <mxCell id="B7P2nCLe0r-bqkbQ7zaA-1" style="edgeStyle=orthogonalEdgeStyle;rounded=0;orthogonalLoop=1;jettySize=auto;html=1;entryX=0.808;entryY=-0.006;entryDx=0;entryDy=0;fontSize=14;entryPerimeter=0;" edge="1" parent="1" source="yMCKSJx15J1RFyX7Sh6V-46" target="yMCKSJx15J1RFyX7Sh6V-50">
          <mxGeometry relative="1" as="geometry">
            <Array as="points">
              <mxPoint x="540" y="580" />
              <mxPoint x="540" y="686" />
              <mxPoint x="518" y="686" />
            </Array>
          </mxGeometry>
        </mxCell>
        <mxCell id="yMCKSJx15J1RFyX7Sh6V-46" value="" style="rounded=0;whiteSpace=wrap;html=1;" parent="1" vertex="1">
          <mxGeometry x="364" y="550" width="160" height="60" as="geometry" />
        </mxCell>
        <mxCell id="yMCKSJx15J1RFyX7Sh6V-47" value="&lt;font style=&quot;font-size: 14px;&quot;&gt;Train/Test Split&lt;/font&gt;" style="text;html=1;strokeColor=none;fillColor=none;align=center;verticalAlign=middle;whiteSpace=wrap;rounded=0;" parent="1" vertex="1">
          <mxGeometry x="394" y="565" width="100" height="30" as="geometry" />
        </mxCell>
        <mxCell id="yMCKSJx15J1RFyX7Sh6V-48" value="" style="rounded=0;whiteSpace=wrap;html=1;" parent="1" vertex="1">
          <mxGeometry x="340" y="659" width="160" height="60" as="geometry" />
        </mxCell>
        <mxCell id="yMCKSJx15J1RFyX7Sh6V-109" style="edgeStyle=orthogonalEdgeStyle;rounded=0;orthogonalLoop=1;jettySize=auto;html=1;entryX=0.25;entryY=0;entryDx=0;entryDy=0;fontSize=14;" parent="1" target="yMCKSJx15J1RFyX7Sh6V-50" edge="1">
          <mxGeometry relative="1" as="geometry">
            <mxPoint x="420" y="719" as="sourcePoint" />
          </mxGeometry>
        </mxCell>
        <mxCell id="yMCKSJx15J1RFyX7Sh6V-49" value="&lt;font style=&quot;font-size: 14px;&quot;&gt;Train with RF, SVM, XGBoost&lt;/font&gt;" style="text;html=1;strokeColor=none;fillColor=none;align=center;verticalAlign=middle;whiteSpace=wrap;rounded=0;" parent="1" vertex="1">
          <mxGeometry x="370" y="674" width="100" height="30" as="geometry" />
        </mxCell>
        <mxCell id="yMCKSJx15J1RFyX7Sh6V-50" value="" style="rounded=0;whiteSpace=wrap;html=1;" parent="1" vertex="1">
          <mxGeometry x="341" y="762" width="219" height="60" as="geometry" />
        </mxCell>
        <mxCell id="yMCKSJx15J1RFyX7Sh6V-87" style="edgeStyle=orthogonalEdgeStyle;rounded=0;orthogonalLoop=1;jettySize=auto;html=1;entryX=0.675;entryY=0.06;entryDx=0;entryDy=0;entryPerimeter=0;fontSize=14;" parent="1" target="yMCKSJx15J1RFyX7Sh6V-57" edge="1">
          <mxGeometry relative="1" as="geometry">
            <mxPoint x="424" y="822" as="sourcePoint" />
          </mxGeometry>
        </mxCell>
        <mxCell id="yMCKSJx15J1RFyX7Sh6V-51" value="&lt;font style=&quot;font-size: 14px;&quot;&gt;Validation on Balanced Test Set&lt;/font&gt;" style="text;html=1;strokeColor=none;fillColor=none;align=center;verticalAlign=middle;whiteSpace=wrap;rounded=0;" parent="1" vertex="1">
          <mxGeometry x="390" y="777" width="117" height="30" as="geometry" />
        </mxCell>
        <mxCell id="yMCKSJx15J1RFyX7Sh6V-86" style="edgeStyle=orthogonalEdgeStyle;rounded=0;orthogonalLoop=1;jettySize=auto;html=1;exitX=0.5;exitY=1;exitDx=0;exitDy=0;entryX=0.896;entryY=-0.02;entryDx=0;entryDy=0;entryPerimeter=0;fontSize=14;" parent="1" source="yMCKSJx15J1RFyX7Sh6V-54" target="yMCKSJx15J1RFyX7Sh6V-56" edge="1">
          <mxGeometry relative="1" as="geometry" />
        </mxCell>
        <mxCell id="yMCKSJx15J1RFyX7Sh6V-54" value="" style="rounded=0;whiteSpace=wrap;html=1;" parent="1" vertex="1">
          <mxGeometry x="719" y="762" width="240" height="60" as="geometry" />
        </mxCell>
        <mxCell id="yMCKSJx15J1RFyX7Sh6V-55" value="&lt;font style=&quot;font-size: 14px;&quot;&gt;Validation on Balanced Test Set&lt;/font&gt;" style="text;html=1;strokeColor=none;fillColor=none;align=center;verticalAlign=middle;whiteSpace=wrap;rounded=0;" parent="1" vertex="1">
          <mxGeometry x="743" y="777" width="210" height="30" as="geometry" />
        </mxCell>
        <mxCell id="yMCKSJx15J1RFyX7Sh6V-93" style="edgeStyle=orthogonalEdgeStyle;rounded=0;orthogonalLoop=1;jettySize=auto;html=1;entryX=0.874;entryY=0.047;entryDx=0;entryDy=0;entryPerimeter=0;fontSize=14;exitX=0.941;exitY=1.02;exitDx=0;exitDy=0;exitPerimeter=0;" parent="1" source="yMCKSJx15J1RFyX7Sh6V-56" target="yMCKSJx15J1RFyX7Sh6V-58" edge="1">
          <mxGeometry relative="1" as="geometry" />
        </mxCell>
        <mxCell id="yMCKSJx15J1RFyX7Sh6V-94" style="edgeStyle=orthogonalEdgeStyle;rounded=0;orthogonalLoop=1;jettySize=auto;html=1;exitX=0.75;exitY=1;exitDx=0;exitDy=0;entryX=0.5;entryY=0;entryDx=0;entryDy=0;fontSize=14;" parent="1" edge="1">
          <mxGeometry relative="1" as="geometry">
            <mxPoint x="750.75" y="912" as="sourcePoint" />
            <mxPoint x="756" y="943" as="targetPoint" />
          </mxGeometry>
        </mxCell>
        <mxCell id="yMCKSJx15J1RFyX7Sh6V-95" style="edgeStyle=orthogonalEdgeStyle;rounded=0;orthogonalLoop=1;jettySize=auto;html=1;entryX=0.25;entryY=0;entryDx=0;entryDy=0;fontSize=14;exitX=1;exitY=1;exitDx=0;exitDy=0;" parent="1" source="yMCKSJx15J1RFyX7Sh6V-57" target="yMCKSJx15J1RFyX7Sh6V-59" edge="1">
          <mxGeometry relative="1" as="geometry" />
        </mxCell>
        <mxCell id="yMCKSJx15J1RFyX7Sh6V-96" style="edgeStyle=orthogonalEdgeStyle;rounded=0;orthogonalLoop=1;jettySize=auto;html=1;entryX=0.066;entryY=0.06;entryDx=0;entryDy=0;entryPerimeter=0;fontSize=14;exitX=0.064;exitY=1.02;exitDx=0;exitDy=0;exitPerimeter=0;" parent="1" source="yMCKSJx15J1RFyX7Sh6V-56" target="yMCKSJx15J1RFyX7Sh6V-60" edge="1">
          <mxGeometry relative="1" as="geometry">
            <Array as="points">
              <mxPoint x="-132" y="913" />
            </Array>
          </mxGeometry>
        </mxCell>
        <mxCell id="yMCKSJx15J1RFyX7Sh6V-97" style="edgeStyle=orthogonalEdgeStyle;rounded=0;orthogonalLoop=1;jettySize=auto;html=1;fontSize=14;entryX=0.145;entryY=0.087;entryDx=0;entryDy=0;entryPerimeter=0;exitX=0.145;exitY=1.02;exitDx=0;exitDy=0;exitPerimeter=0;" parent="1" edge="1">
          <mxGeometry relative="1" as="geometry">
            <mxPoint x="30.50500000000011" y="912.5999999999999" as="sourcePoint" />
            <mxPoint x="30.50500000000011" y="1004.6099999999999" as="targetPoint" />
          </mxGeometry>
        </mxCell>
        <mxCell id="yMCKSJx15J1RFyX7Sh6V-56" value="" style="rounded=0;whiteSpace=wrap;html=1;" parent="1" vertex="1">
          <mxGeometry x="-209" y="882" width="1169" height="30" as="geometry" />
        </mxCell>
        <mxCell id="yMCKSJx15J1RFyX7Sh6V-90" style="edgeStyle=orthogonalEdgeStyle;rounded=0;orthogonalLoop=1;jettySize=auto;html=1;exitX=0.75;exitY=1;exitDx=0;exitDy=0;entryX=0.113;entryY=0.1;entryDx=0;entryDy=0;entryPerimeter=0;fontSize=14;" parent="1" source="yMCKSJx15J1RFyX7Sh6V-57" target="yMCKSJx15J1RFyX7Sh6V-58" edge="1">
          <mxGeometry relative="1" as="geometry">
            <Array as="points">
              <mxPoint x="463" y="927" />
            </Array>
          </mxGeometry>
        </mxCell>
        <mxCell id="yMCKSJx15J1RFyX7Sh6V-57" value="&lt;font style=&quot;font-size: 14px;&quot;&gt;Comparison of Results For Each Classifier to Select Best For Each Classifier&lt;/font&gt;" style="text;html=1;strokeColor=none;fillColor=none;align=center;verticalAlign=middle;whiteSpace=wrap;rounded=0;" parent="1" vertex="1">
          <mxGeometry x="80" y="882" width="510" height="30" as="geometry" />
        </mxCell>
        <mxCell id="yMCKSJx15J1RFyX7Sh6V-58" value="" style="rounded=0;whiteSpace=wrap;html=1;" parent="1" vertex="1">
          <mxGeometry x="400" y="944" width="560" height="30" as="geometry" />
        </mxCell>
        <mxCell id="yMCKSJx15J1RFyX7Sh6V-59" value="&lt;font style=&quot;font-size: 14px;&quot;&gt;Apply Feature Selection Using Recursive Method&lt;/font&gt;" style="text;html=1;strokeColor=none;fillColor=none;align=center;verticalAlign=middle;whiteSpace=wrap;rounded=0;" parent="1" vertex="1">
          <mxGeometry x="515" y="943" width="316" height="30" as="geometry" />
        </mxCell>
        <mxCell id="yMCKSJx15J1RFyX7Sh6V-100" style="edgeStyle=orthogonalEdgeStyle;rounded=0;orthogonalLoop=1;jettySize=auto;html=1;fontSize=14;exitX=0.075;exitY=1.02;exitDx=0;exitDy=0;exitPerimeter=0;entryX=0.075;entryY=0.087;entryDx=0;entryDy=0;entryPerimeter=0;" parent="1" source="yMCKSJx15J1RFyX7Sh6V-60" target="yMCKSJx15J1RFyX7Sh6V-62" edge="1">
          <mxGeometry relative="1" as="geometry" />
        </mxCell>
        <mxCell id="yMCKSJx15J1RFyX7Sh6V-60" value="" style="rounded=0;whiteSpace=wrap;html=1;" parent="1" vertex="1">
          <mxGeometry x="-209" y="1002" width="1169" height="30" as="geometry" />
        </mxCell>
        <mxCell id="yMCKSJx15J1RFyX7Sh6V-61" value="&lt;font style=&quot;font-size: 14px;&quot;&gt;Comparison of results Before and After Feature Selection For Each Classifier&lt;/font&gt;" style="text;html=1;strokeColor=none;fillColor=none;align=center;verticalAlign=middle;whiteSpace=wrap;rounded=0;" parent="1" vertex="1">
          <mxGeometry x="80" y="1002" width="510" height="30" as="geometry" />
        </mxCell>
        <mxCell id="yMCKSJx15J1RFyX7Sh6V-62" value="" style="rounded=0;whiteSpace=wrap;html=1;" parent="1" vertex="1">
          <mxGeometry x="-209" y="1062" width="1169" height="30" as="geometry" />
        </mxCell>
        <mxCell id="yMCKSJx15J1RFyX7Sh6V-104" value="" style="edgeStyle=orthogonalEdgeStyle;rounded=0;orthogonalLoop=1;jettySize=auto;html=1;fontSize=14;entryX=0.5;entryY=0;entryDx=0;entryDy=0;" parent="1" source="yMCKSJx15J1RFyX7Sh6V-63" target="yMCKSJx15J1RFyX7Sh6V-65" edge="1">
          <mxGeometry relative="1" as="geometry" />
        </mxCell>
        <mxCell id="yMCKSJx15J1RFyX7Sh6V-63" value="&lt;font style=&quot;font-size: 14px;&quot;&gt;Hyper Parameter Tuning and Comparing Among Classification&lt;/font&gt;" style="text;html=1;strokeColor=none;fillColor=none;align=center;verticalAlign=middle;whiteSpace=wrap;rounded=0;" parent="1" vertex="1">
          <mxGeometry x="80" y="1062" width="510" height="30" as="geometry" />
        </mxCell>
        <mxCell id="yMCKSJx15J1RFyX7Sh6V-64" value="" style="rounded=0;whiteSpace=wrap;html=1;" parent="1" vertex="1">
          <mxGeometry x="142" y="1122" width="380" height="30" as="geometry" />
        </mxCell>
        <mxCell id="yMCKSJx15J1RFyX7Sh6V-65" value="&lt;font style=&quot;font-size: 14px;&quot;&gt;Proposed Model&lt;/font&gt;" style="text;html=1;strokeColor=none;fillColor=none;align=center;verticalAlign=middle;whiteSpace=wrap;rounded=0;" parent="1" vertex="1">
          <mxGeometry x="80" y="1123" width="510" height="30" as="geometry" />
        </mxCell>
        <mxCell id="yMCKSJx15J1RFyX7Sh6V-98" style="edgeStyle=orthogonalEdgeStyle;rounded=0;orthogonalLoop=1;jettySize=auto;html=1;fontSize=14;entryX=0.25;entryY=0;entryDx=0;entryDy=0;exitX=0.017;exitY=1.02;exitDx=0;exitDy=0;exitPerimeter=0;" parent="1" edge="1">
          <mxGeometry relative="1" as="geometry">
            <mxPoint x="185.67000000000007" y="912.5999999999999" as="sourcePoint" />
            <mxPoint x="180.2500000000009" y="1002" as="targetPoint" />
            <Array as="points">
              <mxPoint x="180" y="913" />
            </Array>
          </mxGeometry>
        </mxCell>
        <mxCell id="yMCKSJx15J1RFyX7Sh6V-99" style="edgeStyle=orthogonalEdgeStyle;rounded=0;orthogonalLoop=1;jettySize=auto;html=1;fontSize=14;entryX=0.5;entryY=0;entryDx=0;entryDy=0;exitX=0.5;exitY=1;exitDx=0;exitDy=0;" parent="1" source="yMCKSJx15J1RFyX7Sh6V-57" target="yMCKSJx15J1RFyX7Sh6V-61" edge="1">
          <mxGeometry relative="1" as="geometry">
            <mxPoint x="-19.49499999999989" y="932.5999999999999" as="sourcePoint" />
            <mxPoint x="-19.49499999999989" y="1024.61" as="targetPoint" />
          </mxGeometry>
        </mxCell>
        <mxCell id="yMCKSJx15J1RFyX7Sh6V-101" style="edgeStyle=orthogonalEdgeStyle;rounded=0;orthogonalLoop=1;jettySize=auto;html=1;fontSize=14;entryX=0.25;entryY=0;entryDx=0;entryDy=0;exitX=0.25;exitY=1;exitDx=0;exitDy=0;" parent="1" source="yMCKSJx15J1RFyX7Sh6V-60" target="yMCKSJx15J1RFyX7Sh6V-62" edge="1">
          <mxGeometry relative="1" as="geometry">
            <mxPoint x="-20" y="1042" as="sourcePoint" />
            <mxPoint x="-111.32500000000005" y="1074.61" as="targetPoint" />
          </mxGeometry>
        </mxCell>
        <mxCell id="yMCKSJx15J1RFyX7Sh6V-102" style="edgeStyle=orthogonalEdgeStyle;rounded=0;orthogonalLoop=1;jettySize=auto;html=1;fontSize=14;entryX=0.579;entryY=0.06;entryDx=0;entryDy=0;exitX=0.5;exitY=1;exitDx=0;exitDy=0;entryPerimeter=0;" parent="1" source="yMCKSJx15J1RFyX7Sh6V-60" target="yMCKSJx15J1RFyX7Sh6V-63" edge="1">
          <mxGeometry relative="1" as="geometry">
            <mxPoint x="93.25000000000023" y="1042" as="sourcePoint" />
            <mxPoint x="93.25000000000091" y="1072" as="targetPoint" />
          </mxGeometry>
        </mxCell>
        <mxCell id="yMCKSJx15J1RFyX7Sh6V-103" style="edgeStyle=orthogonalEdgeStyle;rounded=0;orthogonalLoop=1;jettySize=auto;html=1;fontSize=14;entryX=0.75;entryY=0;entryDx=0;entryDy=0;exitX=0.75;exitY=1;exitDx=0;exitDy=0;" parent="1" source="yMCKSJx15J1RFyX7Sh6V-60" target="yMCKSJx15J1RFyX7Sh6V-62" edge="1">
          <mxGeometry relative="1" as="geometry">
            <mxPoint x="640" y="1052" as="sourcePoint" />
            <mxPoint x="385.28999999999996" y="1073.8" as="targetPoint" />
          </mxGeometry>
        </mxCell>
        <mxCell id="yMCKSJx15J1RFyX7Sh6V-113" style="edgeStyle=orthogonalEdgeStyle;rounded=0;orthogonalLoop=1;jettySize=auto;html=1;fontSize=14;" parent="1" source="yMCKSJx15J1RFyX7Sh6V-110" edge="1">
          <mxGeometry relative="1" as="geometry">
            <mxPoint x="110" y="760" as="targetPoint" />
            <Array as="points">
              <mxPoint x="205" y="670" />
              <mxPoint x="110" y="670" />
            </Array>
          </mxGeometry>
        </mxCell>
        <mxCell id="yMCKSJx15J1RFyX7Sh6V-110" value="" style="verticalLabelPosition=bottom;verticalAlign=top;html=1;shape=mxgraph.flowchart.or;fontSize=14;strokeWidth=2;" parent="1" vertex="1">
          <mxGeometry x="170" y="560" width="70" height="40" as="geometry" />
        </mxCell>
        <mxCell id="yMCKSJx15J1RFyX7Sh6V-114" value="Full set" style="text;html=1;strokeColor=none;fillColor=none;align=center;verticalAlign=middle;whiteSpace=wrap;rounded=0;fontSize=14;" parent="1" vertex="1">
          <mxGeometry x="220" y="450" width="60" height="30" as="geometry" />
        </mxCell>
        <mxCell id="yMCKSJx15J1RFyX7Sh6V-115" value="Train set" style="text;html=1;strokeColor=none;fillColor=none;align=center;verticalAlign=middle;whiteSpace=wrap;rounded=0;fontSize=14;" parent="1" vertex="1">
          <mxGeometry x="-68" y="614" width="60" height="30" as="geometry" />
        </mxCell>
        <mxCell id="yMCKSJx15J1RFyX7Sh6V-117" value="Train set" style="text;html=1;strokeColor=none;fillColor=none;align=center;verticalAlign=middle;whiteSpace=wrap;rounded=0;fontSize=14;" parent="1" vertex="1">
          <mxGeometry x="18" y="614" width="60" height="30" as="geometry" />
        </mxCell>
        <mxCell id="yMCKSJx15J1RFyX7Sh6V-120" value="Train set" style="text;html=1;strokeColor=none;fillColor=none;align=center;verticalAlign=middle;whiteSpace=wrap;rounded=0;fontSize=14;" parent="1" vertex="1">
          <mxGeometry x="94.5" y="551" width="60" height="30" as="geometry" />
        </mxCell>
        <mxCell id="yMCKSJx15J1RFyX7Sh6V-121" value="Train set" style="text;html=1;strokeColor=none;fillColor=none;align=center;verticalAlign=middle;whiteSpace=wrap;rounded=0;fontSize=14;" parent="1" vertex="1">
          <mxGeometry x="345.5" y="619" width="60" height="30" as="geometry" />
        </mxCell>
        <mxCell id="yMCKSJx15J1RFyX7Sh6V-122" value="Test set" style="text;html=1;strokeColor=none;fillColor=none;align=center;verticalAlign=middle;whiteSpace=wrap;rounded=0;fontSize=14;" parent="1" vertex="1">
          <mxGeometry x="518" y="726" width="60" height="30" as="geometry" />
        </mxCell>
        <mxCell id="yMCKSJx15J1RFyX7Sh6V-123" value="Train set" style="text;html=1;strokeColor=none;fillColor=none;align=center;verticalAlign=middle;whiteSpace=wrap;rounded=0;fontSize=14;" parent="1" vertex="1">
          <mxGeometry x="720" y="614" width="60" height="30" as="geometry" />
        </mxCell>
        <mxCell id="yMCKSJx15J1RFyX7Sh6V-124" value="Test set" style="text;html=1;strokeColor=none;fillColor=none;align=center;verticalAlign=middle;whiteSpace=wrap;rounded=0;fontSize=14;" parent="1" vertex="1">
          <mxGeometry x="712" y="728" width="60" height="30" as="geometry" />
        </mxCell>
        <mxCell id="yMCKSJx15J1RFyX7Sh6V-126" value="[Full set - Balanced train]" style="text;html=1;strokeColor=none;fillColor=none;align=center;verticalAlign=middle;whiteSpace=wrap;rounded=0;fontSize=14;rotation=0;" parent="1" vertex="1">
          <mxGeometry x="110" y="689" width="170" height="30" as="geometry" />
        </mxCell>
      </root>
    </mxGraphModel>
  </diagram>
</mxfile>
